REM DIRINDEX 1\2,1\3,1\4,1\5
REM DIRNAME "folder01","folder02","folder03","folder04","folder05"
TITLE ""
FILE "1Q_t_0559-0568.mp3" MP3
  TRACK 01 AUDIO
    TITLE "3:cjc172_2610"
    INDEX 01 00:00:00
  TRACK 02 AUDIO
    TITLE "0:"
    INDEX 01 00:01:04
  TRACK 03 AUDIO
    TITLE "4:cjc172_2611"
    INDEX 01 00:01:14
  TRACK 04 AUDIO
    TITLE "0:"
    INDEX 01 00:03:20
  TRACK 05 AUDIO
    TITLE "5:cjc172_2612"
    INDEX 01 00:03:26
  TRACK 06 AUDIO
    TITLE "0:"
    INDEX 01 00:09:70
  TRACK 07 AUDIO
    TITLE "3:cjc172_2613"
    INDEX 01 00:10:40
  TRACK 08 AUDIO
    TITLE "0:"
    INDEX 01 00:11:71
  TRACK 09 AUDIO
    TITLE "4:cjc172_2614"
    INDEX 01 00:12:06
  TRACK 10 AUDIO
    TITLE "0:"
    INDEX 01 00:14:01
  TRACK 11 AUDIO
    TITLE "5:cjc172_2615"
    INDEX 01 00:14:08
  TRACK 12 AUDIO
    TITLE "0:"
    INDEX 01 00:21:42
  TRACK 13 AUDIO
    TITLE "3:cjc172_2616"
    INDEX 01 00:22:12
  TRACK 14 AUDIO
    TITLE "0:"
    INDEX 01 00:23:41
  TRACK 15 AUDIO
    TITLE "4:cjc172_2617"
    INDEX 01 00:23:49
  TRACK 16 AUDIO
    TITLE "0:"
    INDEX 01 00:25:61
  TRACK 17 AUDIO
    TITLE "5:cjc172_2618"
    INDEX 01 00:25:69
  TRACK 18 AUDIO
    TITLE "0:"
    INDEX 01 00:32:59
  TRACK 19 AUDIO
    TITLE "3:cjc172_2619"
    INDEX 01 00:33:27
  TRACK 20 AUDIO
    TITLE "0:"
    INDEX 01 00:34:37
  TRACK 21 AUDIO
    TITLE "4:cjc172_2620"
    INDEX 01 00:34:48
  TRACK 22 AUDIO
    TITLE "0:"
    INDEX 01 00:37:45
  TRACK 23 AUDIO
    TITLE "5:cjc172_2621"
    INDEX 01 00:37:51
  TRACK 24 AUDIO
    TITLE "0:"
    INDEX 01 00:44:35
  TRACK 25 AUDIO
    TITLE "3:cjc172_2622"
    INDEX 01 00:45:05
  TRACK 26 AUDIO
    TITLE "0:"
    INDEX 01 00:46:32
  TRACK 27 AUDIO
    TITLE "4:cjc172_2623"
    INDEX 01 00:46:40
  TRACK 28 AUDIO
    TITLE "0:"
    INDEX 01 00:47:59
  TRACK 29 AUDIO
    TITLE "5:cjc172_2624"
    INDEX 01 00:47:67
  TRACK 30 AUDIO
    TITLE "0:"
    INDEX 01 00:55:33
  TRACK 31 AUDIO
    TITLE "3:cjc172_2625"
    INDEX 01 00:56:05
  TRACK 32 AUDIO
    TITLE "0:"
    INDEX 01 00:57:06
  TRACK 33 AUDIO
    TITLE "4:cjc172_2626"
    INDEX 01 00:57:14
  TRACK 34 AUDIO
    TITLE "0:"
    INDEX 01 00:59:66
  TRACK 35 AUDIO
    TITLE "5:cjc172_2627"
    INDEX 01 00:59:74
  TRACK 36 AUDIO
    TITLE "0:"
    INDEX 01 01:06:05
  TRACK 37 AUDIO
    TITLE "3:cjc172_2628"
    INDEX 01 01:06:52
  TRACK 38 AUDIO
    TITLE "0:"
    INDEX 01 01:07:67
  TRACK 39 AUDIO
    TITLE "4:cjc172_2629"
    INDEX 01 01:08:02
  TRACK 40 AUDIO
    TITLE "0:"
    INDEX 01 01:09:33
  TRACK 41 AUDIO
    TITLE "5:cjc172_2630"
    INDEX 01 01:09:39
  TRACK 42 AUDIO
    TITLE "0:"
    INDEX 01 01:14:73
  TRACK 43 AUDIO
    TITLE "3:cjc172_2631"
    INDEX 01 01:15:45
  TRACK 44 AUDIO
    TITLE "0:"
    INDEX 01 01:16:49
  TRACK 45 AUDIO
    TITLE "4:cjc172_2632"
    INDEX 01 01:16:60
  TRACK 46 AUDIO
    TITLE "0:"
    INDEX 01 01:18:54
  TRACK 47 AUDIO
    TITLE "5:cjc172_2633"
    INDEX 01 01:18:61
  TRACK 48 AUDIO
    TITLE "0:"
    INDEX 01 01:24:17
  TRACK 49 AUDIO
    TITLE "3:cjc172_2634"
    INDEX 01 01:24:64
  TRACK 50 AUDIO
    TITLE "0:"
    INDEX 01 01:26:16
  TRACK 51 AUDIO
    TITLE "4:cjc172_2635"
    INDEX 01 01:26:24
  TRACK 52 AUDIO
    TITLE "0:"
    INDEX 01 01:28:13
  TRACK 53 AUDIO
    TITLE "5:cjc172_2636"
    INDEX 01 01:28:21
  TRACK 54 AUDIO
    TITLE "0:"
    INDEX 01 01:34:27
  TRACK 55 AUDIO
    TITLE "3:cjc172_2637"
    INDEX 01 01:34:72
  TRACK 56 AUDIO
    TITLE "0:"
    INDEX 01 01:36:01
  TRACK 57 AUDIO
    TITLE "4:cjc172_2638"
    INDEX 01 01:36:10
  TRACK 58 AUDIO
    TITLE "0:"
    INDEX 01 01:37:12
  TRACK 59 AUDIO
    TITLE "5:cjc172_2639"
    INDEX 01 01:37:22
  TRACK 60 AUDIO
    TITLE "0:"
    INDEX 01 01:44:04
